<?xml version="1.0" encoding="UTF-8"?>
<!DOCTYPE svg PUBLIC "-//W3C//DTD SVG 1.1//EN" "http://www.w3.org/Graphics/SVG/1.1/DTD/svg11.dtd">
<!-- Creator: CorelDRAW -->
<svg xmlns="http://www.w3.org/2000/svg" xml:space="preserve" width="26.4161mm" height="26.4161mm" version="1.1" style="shape-rendering:geometricPrecision; text-rendering:geometricPrecision; image-rendering:optimizeQuality; fill-rule:evenodd; clip-rule:evenodd"
viewBox="0 0 442.68 442.68"
 xmlns:xlink="http://www.w3.org/1999/xlink"
 xmlns:xodm="http://www.corel.com/coreldraw/odm/2003">
 <defs>
  <style type="text/css">
   <![CDATA[
    .fil0 {fill:url(#id1);fill-rule:nonzero}
   ]]>
  </style>
    <clipPath id="id0">
     <path d="M-0 0l442.68 0 0 442.68 -442.68 0 0 -442.68z"/>
    </clipPath>
  <linearGradient id="id1" gradientUnits="userSpaceOnUse" x1="1319.91" y1="456.37" x2="1319.92" y2="-70.55">
   <stop offset="0" style="stop-opacity:1; stop-color:#367BB2"/>
   <stop offset="1" style="stop-opacity:1; stop-color:white"/>
  </linearGradient>
 </defs>
 <g id="Camada_x0020_1">
  <metadata id="CorelCorpID_0Corel-Layer"/>
  <g id="_105553241802016">
   <g style="clip-path:url(#id0)">
    <image x="-0" y="0" width="442.68" height="442.68" xlink:href="icones_Images/icones_ImgID1.png"/>
   </g>
  </g>
  <path class="fil0" d="M103.46 36.89l235.76 0c18.31,0 34.96,7.49 47.02,19.55 12.06,12.06 19.55,28.71 19.55,47.02l0 235.76c0,18.31 -7.49,34.96 -19.55,47.02 -12.06,12.06 -28.71,19.55 -47.02,19.55l-235.76 0c-18.31,0 -34.96,-7.49 -47.02,-19.55 -12.06,-12.06 -19.55,-28.71 -19.55,-47.02l0 -235.76c0,-18.31 7.49,-34.96 19.55,-47.02 12.06,-12.06 28.71,-19.55 47.02,-19.55zm189.38 240.41c5.79,0.11 11.27,1.72 15.1,4.36 1.96,1.35 3.18,3.81 5.59,4.09 3.08,0.37 5.14,-1.71 4.97,-4.6 -0.37,-6.47 -15.92,-12.53 -25.66,-12.64 -12.87,-0.14 -25.82,0.19 -38.73,-0.03l0.12 -6.91c8.87,-0.11 17.8,-0.01 26.67,-0.01 12.08,0 25.15,-1.99 35.31,4.06l6.96 5.86c4.15,5.01 6.97,10.31 7.14,18.85 0.11,5.47 -1.76,11.03 -4.49,15.54 -1.2,1.98 -4.39,5.74 -6.24,7.04 -4.27,2.99 -7.45,4.93 -13.3,5.99 -5.03,0.91 -44.44,0.55 -52.15,0.38l0.05 -41.98c12.74,-0.17 25.94,-0.24 38.67,-0zm-95.97 -23.6c-0.71,-18.12 -1.11,-31.08 2.96,-48.68 3.83,-16.56 10.61,-28.69 19.59,-40.05l13.35 -13.27c1.24,-1.09 2.13,-1.92 3.38,-3.05l6.48 -6.37c5.26,-4.45 18.21,-17.28 22.99,-23.41 0.99,-1.27 1.72,-2.37 2.72,-3.75 2.32,9.25 2.29,28.07 0.74,37.76 -1.8,11.21 -5.3,22.21 -10.96,29.72l-4.61 5.93c-1.87,2.2 -3.2,2.9 -5.26,4.82 -6.22,5.81 -19.42,11.27 -28.27,12.97 -6.68,1.28 -13.78,1.23 -15.58,4.8 -1.38,2.73 -0.33,6.22 1.81,7.38 2.6,1.4 5.95,0.63 8.95,0.18 12.79,-1.9 31.06,-7.81 40.11,-16.41 1.16,-1.1 1.8,-1.31 2.83,-2.26 6.16,-5.71 12.96,-14.96 16.67,-24.72 8.54,-22.5 8.28,-48.32 3.02,-71.89 -1.21,-5.43 -1.87,-13.17 -7.91,-12.92 -3.11,0.13 -4.72,2.07 -5.24,4.88 -2.21,11.84 -18.05,15.39 -31.63,19.75 -17.36,5.57 -27.32,11.35 -39.69,21.95l-7.83 7.78c-3.66,4.84 -7.18,9.96 -9.6,16.23 -6.47,16.77 -1.39,35.37 7.65,48.84 1.92,2.86 3.32,3.24 2.77,6.93 -1.43,9.66 -1.33,19.23 -1.23,28.99l-7.29 -7.86c-0.93,-25.85 -14.92,-40.43 -41.12,-41.12 -25.72,-0.68 -40.84,14.17 -50.51,7.1 -5.26,-3.85 -11.29,0.58 -8.33,7.36 2.75,6.31 6.7,15 10.42,20.37 3.84,5.56 8.72,12.16 13.74,16.64 12.56,11.2 27.07,17.29 45.37,13.26 5.24,-1.15 17.8,-5.79 21.09,-9.31 1.56,-1.67 1.76,-5.6 0.05,-7.18 2.85,2.51 3.9,4.23 5.46,5.64l3.6 4.23c1.37,1.99 3.15,3.71 4.58,6.43 -9.46,7.78 -18.08,25.28 -10.83,42.92 0.76,1.85 1.55,3.28 2.42,5 1.03,2.01 1.83,2.75 2.97,4.39l3.49 3.88c7.1,6.53 14.82,10.54 25.86,10.76 28.17,0.55 59.44,-0 88.2,-0 12.17,0 20.08,-0.24 29.43,-7.17 11.26,-8.35 17.05,-20.74 15.4,-35.68 -1.7,-15.37 -12.78,-27.29 -27.31,-31.55 -8.71,-2.55 -45.96,-1.49 -57.48,-1.49 -13.24,0 -46.32,-0.83 -57.39,1.27zm142.35 -202.61l-235.76 0c-14.4,0 -27.5,5.9 -36.99,15.39 -9.5,9.5 -15.39,22.59 -15.39,36.99l0 235.76c0,14.4 5.9,27.5 15.39,36.99 9.5,9.5 22.59,15.39 36.99,15.39l235.76 0c14.4,0 27.49,-5.9 36.99,-15.39 9.5,-9.5 15.39,-22.59 15.39,-36.99l0 -235.76c0,-14.4 -5.9,-27.49 -15.39,-36.99 -9.5,-9.5 -22.59,-15.39 -36.99,-15.39z"/>
 </g>
</svg>
