<?xml version="1.0" encoding="UTF-8"?>
<!DOCTYPE svg PUBLIC "-//W3C//DTD SVG 1.1//EN" "http://www.w3.org/Graphics/SVG/1.1/DTD/svg11.dtd">
<!-- Creator: CorelDRAW -->
<svg xmlns="http://www.w3.org/2000/svg" xml:space="preserve" width="26.4161mm" height="26.4161mm" version="1.1" style="shape-rendering:geometricPrecision; text-rendering:geometricPrecision; image-rendering:optimizeQuality; fill-rule:evenodd; clip-rule:evenodd"
viewBox="0 0 656.01 656.01"
 xmlns:xlink="http://www.w3.org/1999/xlink"
 xmlns:xodm="http://www.corel.com/coreldraw/odm/2003">
 <defs>
  <style type="text/css">
   <![CDATA[
    .fil0 {fill:url(#id1);fill-rule:nonzero}
   ]]>
  </style>
    <clipPath id="id0">
     <path d="M-0 0l656.01 0 0 656.01 -656.01 0 0 -656.01z"/>
    </clipPath>
  <linearGradient id="id1" gradientUnits="userSpaceOnUse" x1="1319.48" y1="676.3" x2="1319.49" y2="-104.55">
   <stop offset="0" style="stop-opacity:1; stop-color:#367BB2"/>
   <stop offset="1" style="stop-opacity:1; stop-color:white"/>
  </linearGradient>
 </defs>
 <g id="Camada_x0020_1">
  <metadata id="CorelCorpID_0Corel-Layer"/>
  <g id="_105553241761152">
   <g style="clip-path:url(#id0)">
    <image x="-0" y="0" width="656.01" height="656.01" xlink:href="enfermagem_Images/enfermagem_ImgID1.png"/>
   </g>
  </g>
  <path class="fil0" d="M153.32 54.67l349.38 0c27.13,0 51.81,11.1 69.68,28.97 17.87,17.88 28.97,42.54 28.97,69.68l0 349.38c0,27.14 -11.1,51.81 -28.97,69.68 -17.88,17.87 -42.54,28.97 -69.68,28.97l-349.38 0c-27.14,0 -51.81,-11.1 -69.68,-28.97 -17.88,-17.88 -28.97,-42.55 -28.97,-69.68l0 -349.38c0,-27.14 11.1,-51.81 28.97,-69.68 17.88,-17.88 42.54,-28.97 69.68,-28.97zm23.53 242.05c1.89,1.6 9.07,13.14 10.36,15.18 3.22,5.08 6.35,10.55 10.14,15.03l4.08 -5.53c4.19,-5.88 7.93,-12.25 12.86,-17.63 19.16,-20.89 45.81,-39.67 76.52,-45.66 0.72,-0.49 8.34,-1.93 10.33,-2.26 13.97,-2.37 12.37,1.71 11.79,-18.27 -6.04,-1.36 -13.22,0.02 -19.45,-0.64 -7.31,-0.77 -5.66,-7.64 -5.65,-14.41 0,-6.89 -1.94,-14.39 5.64,-15.08 5.96,-0.55 13.2,0.13 19.39,-0.13 0.56,-6.64 -0.47,-14.1 0.09,-20.73 0.63,-7.52 8.01,-5.65 15.12,-5.56 7.42,0.1 14.81,-2.05 15.25,6.23 0.34,6.33 -0.53,13.72 0.13,19.9 6.12,1.03 21.96,-2.23 24.35,3.44 0.86,2.03 0.62,10.43 0.65,13.29 0.2,17.23 -1.03,12.96 -24.76,13.2l0.23 16.99c21.52,2.6 41.82,9.01 58.54,18 11.41,6.13 37.42,25.52 41.24,34.94 2.28,0.87 9.23,11.61 11.32,14.72l3.74 5.15c3,-2.93 41.71,-64.19 47.38,-72.58 2.44,-3.62 8.51,-11.39 6.8,-17.43 -3,-10.64 -42.97,-38.41 -52.19,-44.12 -32.04,-19.86 -69.71,-32.17 -109,-36.04 -59.17,-5.83 -111.91,10.53 -154.61,35.11 -10.24,5.9 -32.37,21.57 -41.1,30.7 -12.2,12.75 -18.78,12.09 -7.42,29.77 3.19,4.97 6.37,9.76 9.53,14.83 2.85,4.57 18.18,27.09 18.68,29.61zm54.28 111.36c6.71,-4.09 26.92,-5.77 51.48,-25.12 14,-11.03 25.62,-25.83 33.26,-42.62 9.17,-20.16 8.84,-29.37 12.19,-37.53 0.78,1.46 4.22,21.76 12.08,38.32 15.19,31.98 49.97,60.75 84.99,66.18 -1.78,9.66 -9.73,22.15 -14.15,28.13 -33.93,45.9 -101.3,55.2 -145.38,20.86 -13.42,-10.45 -31.55,-30.93 -34.48,-48.21zm70.55 -137.01c-3.2,2.17 -26.95,4.58 -49.13,19.47 -11.08,7.44 -23.61,17.93 -31.48,28.86 -1.33,1.85 -1.67,3.2 -3.8,4.41 -0.42,2.75 -1.9,3.95 -3.39,6.69 -9.4,17.25 -12.71,35.82 -11.52,55.91 1.42,23.77 8.88,41.5 19.67,57.91 47.31,71.87 154.7,75.11 206.33,7.85 22.99,-29.95 36.66,-76.3 15.18,-118.82 -2.21,-5.81 -7.1,-12.4 -10.17,-16.37 -1.27,-1.64 -1.76,-2.49 -2.98,-3.79 -12.05,-12.78 -23.26,-21.77 -40.77,-30.4 -11.36,-5.6 -25.66,-10.35 -39.74,-12.36 -25.86,-3.7 -42.25,1.42 -48.21,0.64zm201.01 -195.37l-349.38 0c-21.34,0 -40.74,8.74 -54.82,22.81 -14.07,14.07 -22.81,33.48 -22.81,54.82l0 349.38c0,21.34 8.74,40.74 22.81,54.82 14.07,14.07 33.48,22.81 54.82,22.81l349.38 0c21.34,0 40.74,-8.74 54.82,-22.81 14.07,-14.07 22.81,-33.48 22.81,-54.82l0 -349.38c0,-21.34 -8.74,-40.74 -22.81,-54.82 -14.07,-14.07 -33.48,-22.81 -54.82,-22.81z"/>
 </g>
</svg>
