<?xml version="1.0" encoding="UTF-8"?>
<!DOCTYPE svg PUBLIC "-//W3C//DTD SVG 1.1//EN" "http://www.w3.org/Graphics/SVG/1.1/DTD/svg11.dtd">
<!-- Creator: CorelDRAW -->
<svg xmlns="http://www.w3.org/2000/svg" xml:space="preserve" width="26.4161mm" height="26.4161mm" version="1.1" style="shape-rendering:geometricPrecision; text-rendering:geometricPrecision; image-rendering:optimizeQuality; fill-rule:evenodd; clip-rule:evenodd"
viewBox="0 0 13579.78 13579.78"
 xmlns:xlink="http://www.w3.org/1999/xlink"
 xmlns:xodm="http://www.corel.com/coreldraw/odm/2003">
 <defs>
  <style type="text/css">
   <![CDATA[
    .fil0 {fill:url(#id1)}
   ]]>
  </style>
    <clipPath id="id0">
     <path d="M-0 0l13579.78 0 0 13579.78 -13579.78 0 0 -13579.78z"/>
    </clipPath>
  <linearGradient id="id1" gradientUnits="userSpaceOnUse" x1="1293.3" y1="13999.72" x2="1293.51" y2="-2164.19">
   <stop offset="0" style="stop-opacity:1; stop-color:#367BB2"/>
   <stop offset="1" style="stop-opacity:1; stop-color:white"/>
  </linearGradient>
 </defs>
 <g id="Camada_x0020_1">
  <metadata id="CorelCorpID_0Corel-Layer"/>
  <g id="_105553241156256">
   <g style="clip-path:url(#id0)">
    <image x="-0" y="0" width="13579.78" height="13579.78" xlink:href="esteticista_Images/esteticista_ImgID1.png"/>
   </g>
  </g>
  <path class="fil0" d="M6789.91 8302.62c63.03,-46.16 263.36,-405.35 311.58,-498.75 24.93,-48.22 46.16,-75.47 73.2,-129.34l189.59 -433.72c400.41,-998.17 399.43,-1957.89 2.36,-2958.84 -95.36,-240.53 -445.55,-976.79 -592.31,-1075.08l-158.8 261.97c-344.38,571.13 -605.42,1218.5 -681.45,1889.83l-33.05 404.37c-4.16,79.48 14.45,112.79 16.35,186.35 2.36,92.28 8.84,119.98 15.83,202.34 29.25,345.25 144.61,713.89 258.68,1034.72 60.97,171.49 448.53,1006.66 598.02,1116.15zm-3639.63 -1943.24c0,0 1058.78,-75.77 1991.21,483.95 253.13,152.01 574.58,487.34 686.18,641.72 295.75,409.3 247.94,484.41 395.84,722.68 0,0 -665.26,8.79 -1366.04,-235.8 -700.78,-244.6 -1258.86,-786.94 -1707.18,-1612.54zm7263.07 0c0,0 -1058.73,-75.77 -1991.21,483.95 -253.08,152.01 -574.53,487.34 -686.13,641.72 -295.75,409.3 -247.94,484.41 -395.84,722.68 0,0 665.26,8.79 1366.04,-235.8 700.78,-244.6 1258.86,-786.94 1707.13,-1612.54zm-3612.02 -2812.13c0,0 -821.54,1400.18 -673.59,2514.12 147.95,1113.94 669.27,1933.73 669.27,1933.73 0,0 639.61,-1227.81 657.04,-2011.05 17.43,-783.24 -156.64,-1592.59 -652.72,-2436.8zm206.76 4833.3c136.13,0 219.15,23.34 358.46,15.68 71.04,-3.96 84.87,-16.4 170.98,-16.09 526.87,2 1308.26,-221.41 1742.81,-501.12 40.61,-26.17 74.23,-49.97 112.07,-75l315.43 -245.52c40.97,-40.82 61.33,-48.32 101.53,-85.49 187.22,-173.14 369.41,-396.91 520.4,-601.62 53.98,-73.2 98.7,-146.82 150.31,-223.67 102.97,-153.3 180.8,-315.23 267.99,-479.99 -88.88,0 -107.8,-15.63 -202.54,-15.63 -816.24,0 -1467.37,108.93 -2130.11,503.53 -76.8,45.8 -144.15,89.81 -216.42,141.99 -189.13,136.38 -378.1,319.08 -540.6,487.85 -259.35,269.48 -315.49,574.27 -581.62,976.79 -28.63,43.49 -55.31,68.22 -68.68,118.29zm872.69 1651.82c-102.09,3.96 -220.64,24.16 -326.13,32.34 -483.18,37.73 -618.94,46.11 -1139.29,30.54 -237.45,-17.89 -481.43,-34.19 -717.64,-61.48 -629.43,-72.79 -1927.51,-344.89 -2200.64,-916.08 -93.15,-194.83 -42.62,-445.03 101.58,-599.77l-0.46 0 -2.88 2.88c-115.82,30.95 -383.91,311.73 -404.06,547.69 -18.56,217.09 208.4,471.2 369.57,577.66 272.46,180.08 337.13,208.46 626.45,324.12 209.84,83.79 501.84,164.5 736.41,214.21 905.64,192.01 1711.55,188.41 2629.73,159.57 339.65,-10.64 810.79,-87.65 1153.47,-171.24 145.95,-35.63 299.65,-72.95 442.1,-118.8 30.69,-9.82 44.57,-12.85 71.61,-23.08 401.95,-152.37 1389.23,-527.85 1117.54,-1131.32 -51.3,-113.97 -262.38,-379.28 -387.4,-396.97 16.86,2.36 58.24,66.88 73.97,87.03 76.8,98.34 107.6,210.87 100.45,352.09 -14.39,283.92 -329.73,513.76 -556.02,628.56 -46.06,23.34 -441.69,181.57 -441.13,182.14 18.56,15.94 -797.99,212.98 -906.67,230.97 -106.82,17.84 -231.02,42.57 -340.57,48.94zm-3444.02 -2088.16c9.1,28.58 37.27,35.27 82.82,57.22l347.56 151.39c335.12,116.8 721.55,208.97 1081.2,227.79 50.22,2.67 105.08,-3.29 155.1,0.77 323.04,26.53 211.95,-0.82 468.32,-0.82 -121.32,-229.22 -276.72,-431.36 -400.72,-721.35 -75.93,-177.77 -175.97,-301.19 -312.2,-435.78 -66.26,-65.54 -119.68,-122.71 -186.71,-187.28 -388.02,-373.52 -941.47,-634.78 -1475.18,-768.85 -412.59,-103.59 -776.4,-120.96 -1194.39,-115.77 -84.98,1.03 -93,16.19 -170.77,16.19 201.98,381.8 240.02,478.04 529.49,857.37 266.7,349.41 685.41,684.54 686.08,685.41 70.84,50.48 116.49,85.54 183.83,127.7 31.77,19.89 53.77,31.77 87.29,52.59 49.51,30.79 59.43,42.87 118.29,53.41zm3256.95 -997.35c52.02,-34.8 87.08,-83.74 140.24,-124.66 353.22,-272.05 397.79,-330.24 846.73,-540.19 79.12,-36.96 329.62,-138.29 415.58,-145.43 4.63,-55.78 44.57,-165.63 60.56,-219.97 164.4,-560.03 184.5,-1064.69 157.46,-1634.34 -2.83,-60.15 -15.42,-76.39 -15.42,-140.39l-415.42 207.89c-138.03,75.21 -255.29,156.38 -382.47,240.95 -68.06,45.24 -118.08,82.3 -181.78,129.91l-340.37 282.95c-276.31,231.02 -111.4,156.64 -113.3,618.38l-15.88 483.43c-3.44,139.62 -38.56,309.01 -63.64,435.06l-92.28 406.43 -15.52 0 12.95 18.2 2.57 -18.2zm-1807.63 0c-5.19,-62 -124.41,-450.38 -157.2,-840.1 -23.96,-285.67 -25.76,-701.81 32.54,-951.96 -58.5,-39.17 -98.65,-95.67 -164.86,-146.82 -157.67,-121.73 -260.38,-245.42 -517.57,-417.43 -66.98,-44.88 -121.48,-81.43 -189.49,-122.14 -63.33,-37.89 -121.32,-80.71 -192.93,-118.8 -75.72,-40.25 -125.59,-70.84 -202.54,-109.09 -39.89,-19.79 -68.47,-35.83 -104.15,-51.66 -39.12,-17.38 -71.4,-27.14 -108.88,-46.99 -58.71,705.15 -34.29,1085.1 136.95,1764.19 19.74,78.5 59.53,157.41 65.65,230.51 72.95,6.01 321.5,109.14 403.14,142.19 230.05,93.3 499.88,258.73 694.41,412.08l304.95 256.01 0 15.63 18.15 -13.01 -18.15 -2.62zm536.38 2642.64c387.04,58.55 1335.82,-38.86 1723.37,-133.56 339.03,-82.71 644.54,-178.64 900.96,-345.66 35.99,-23.44 52.38,-41.07 87.44,-68.42 355.38,-276.62 183.42,-600.02 8.79,-692.45 27.61,118.75 71.25,190.82 -31.67,357.95 -159,258.27 -641.82,425.75 -896.95,489.91 -307.77,77.52 -869.55,166.76 -1206.01,165.43 -221.1,-0.93 -420.05,-5.29 -639.15,-15.99l-552.37 -55.47c-397.02,-63.69 -1181.44,-239.3 -1375.35,-619.3 -26.63,-52.13 -37.42,-90.68 -37.32,-166.71 0.05,-95.67 16.04,-100.35 32.59,-171.39 -143.53,96.13 -266.91,314.77 -173.5,499.63 34.49,68.22 84.56,125.54 146.05,182.34 22.05,20.46 37.58,32.23 60.51,49.51 97.93,73.67 232.57,149.18 347.41,197.1 108.78,45.29 204.91,82.56 318.78,117.52 111.4,34.08 230.36,60.76 347.82,88.52 314.61,74.13 617.81,90.43 938.59,121.06zm-3248.68 -8457.87l7232.22 0c561.67,0 1072.41,229.69 1442.43,599.72 369.98,370.03 599.72,880.61 599.72,1442.43l0 7232.22c0,561.78 -229.74,1072.41 -599.72,1442.43 -370.03,369.98 -880.66,599.72 -1442.43,599.72l-7232.22 0c-561.83,0 -1072.41,-229.74 -1442.43,-599.72 -370.03,-370.03 -599.72,-880.76 -599.72,-1442.43l0 -7232.22c0,-561.83 229.69,-1072.41 599.72,-1442.43 370.03,-370.03 880.61,-599.72 1442.43,-599.72zm7232.22 435.32l-7232.22 0c-441.69,0 -843.44,180.85 -1134.71,472.12 -291.27,291.27 -472.12,693.02 -472.12,1134.71l0 7232.22c0,441.69 180.85,843.44 472.12,1134.71 291.32,291.27 693.02,472.12 1134.71,472.12l7232.22 0c441.69,0 843.39,-180.85 1134.71,-472.12 291.27,-291.32 472.12,-693.02 472.12,-1134.71l0 -7232.22c0,-441.69 -180.85,-843.39 -472.12,-1134.71 -291.27,-291.27 -693.02,-472.12 -1134.71,-472.12z"/>
 </g>
</svg>
