<?xml version="1.0" encoding="UTF-8"?>
<!DOCTYPE svg PUBLIC "-//W3C//DTD SVG 1.1//EN" "http://www.w3.org/Graphics/SVG/1.1/DTD/svg11.dtd">
<!-- Creator: CorelDRAW -->
<svg xmlns="http://www.w3.org/2000/svg" xml:space="preserve" width="26.4161mm" height="26.4161mm" version="1.1" style="shape-rendering:geometricPrecision; text-rendering:geometricPrecision; image-rendering:optimizeQuality; fill-rule:evenodd; clip-rule:evenodd"
viewBox="0 0 1266.2 1266.2"
 xmlns:xlink="http://www.w3.org/1999/xlink"
 xmlns:xodm="http://www.corel.com/coreldraw/odm/2003">
 <defs>
  <style type="text/css">
   <![CDATA[
    .fil0 {fill:url(#id1)}
   ]]>
  </style>
    <clipPath id="id0">
     <path d="M-0 0l1266.2 0 0 1266.2 -1266.2 0 0 -1266.2z"/>
    </clipPath>
  <linearGradient id="id1" gradientUnits="userSpaceOnUse" x1="1318.24" y1="1305.36" x2="1318.26" y2="-201.79">
   <stop offset="0" style="stop-opacity:1; stop-color:#367BB2"/>
   <stop offset="1" style="stop-opacity:1; stop-color:white"/>
  </linearGradient>
 </defs>
 <g id="Camada_x0020_1">
  <metadata id="CorelCorpID_0Corel-Layer"/>
  <g id="_105553241335264">
   <g style="clip-path:url(#id0)">
    <image x="-0" y="0" width="1266.2" height="1266.2" xlink:href="estetica_Images/estetica_ImgID1.png"/>
   </g>
  </g>
  <path class="fil0" d="M633.1 774.15c5.88,-4.3 24.56,-37.8 29.05,-46.5 2.32,-4.5 4.3,-7.04 6.83,-12.06l17.68 -40.44c37.33,-93.07 37.24,-182.56 0.22,-275.89 -8.89,-22.43 -41.54,-91.08 -55.23,-100.24l-14.81 24.43c-32.11,53.25 -56.45,113.62 -63.54,176.21l-3.08 37.7c-0.39,7.41 1.35,10.52 1.52,17.38 0.22,8.6 0.82,11.19 1.48,18.87 2.73,32.19 13.48,66.56 24.12,96.48 5.68,15.99 41.82,93.86 55.76,104.07zm20.34 7.27c12.69,0 20.43,2.18 33.42,1.46 6.62,-0.37 7.91,-1.53 15.94,-1.5 49.13,0.19 121.98,-20.64 162.5,-46.72 3.79,-2.44 6.92,-4.66 10.45,-6.99l29.41 -22.89c3.82,-3.81 5.72,-4.51 9.47,-7.97 17.46,-16.14 34.44,-37.01 48.52,-56.1 5.03,-6.83 9.2,-13.69 14.02,-20.86 9.6,-14.29 16.86,-29.39 24.99,-44.75 -8.29,0 -10.05,-1.46 -18.89,-1.46 -76.11,0 -136.82,10.16 -198.61,46.95 -7.16,4.27 -13.44,8.37 -20.18,13.24 -17.63,12.72 -35.25,29.75 -50.41,45.49 -24.18,25.13 -29.42,53.55 -54.23,91.08 -2.67,4.06 -5.16,6.36 -6.4,11.03zm81.37 154.02c-9.52,0.37 -20.57,2.25 -30.41,3.01 -45.05,3.52 -57.71,4.3 -106.23,2.85 -22.14,-1.67 -44.89,-3.19 -66.91,-5.73 -58.69,-6.79 -179.72,-32.16 -205.19,-85.42 -8.69,-18.17 -3.97,-41.5 9.47,-55.92l-0.04 0 -0.27 0.27c-10.8,2.89 -35.8,29.07 -37.68,51.07 -1.73,20.24 19.43,43.94 34.46,53.86 25.4,16.79 31.43,19.44 58.41,30.22 19.57,7.81 46.79,15.34 68.66,19.97 84.44,17.9 159.59,17.57 245.2,14.88 31.67,-0.99 75.6,-8.17 107.55,-15.97 13.61,-3.32 27.94,-6.8 41.22,-11.08 2.86,-0.92 4.16,-1.2 6.68,-2.15 37.48,-14.21 129.53,-49.22 104.2,-105.49 -4.78,-10.63 -24.46,-35.36 -36.12,-37.01 1.57,0.22 5.43,6.24 6.9,8.12 7.16,9.17 10.03,19.66 9.37,32.83 -1.34,26.47 -30.74,47.9 -51.84,58.61 -4.29,2.18 -41.18,16.93 -41.13,16.98 1.73,1.49 -74.41,19.86 -84.54,21.54 -9.96,1.66 -21.54,3.97 -31.76,4.56zm-321.13 -194.7c0.85,2.67 3.48,3.29 7.72,5.33l32.41 14.12c31.25,10.89 67.28,19.48 100.81,21.24 4.68,0.25 9.8,-0.31 14.46,0.07 30.12,2.47 19.76,-0.08 43.67,-0.08 -11.31,-21.37 -25.8,-40.22 -37.36,-67.26 -7.08,-16.58 -16.41,-28.08 -29.11,-40.63 -6.18,-6.11 -11.16,-11.44 -17.41,-17.46 -36.18,-34.83 -87.78,-59.19 -137.55,-71.69 -38.47,-9.66 -72.39,-11.28 -111.37,-10.79 -7.92,0.1 -8.67,1.51 -15.92,1.51 18.83,35.6 22.38,44.57 49.37,79.94 24.87,32.58 63.91,63.83 63.97,63.91 6.61,4.71 10.86,7.98 17.14,11.91 2.96,1.86 5.01,2.96 8.14,4.9 4.62,2.87 5.54,4 11.03,4.98zm303.68 -92.99c4.85,-3.25 8.12,-7.81 13.08,-11.62 32.93,-25.37 37.09,-30.79 78.95,-50.37 7.38,-3.45 30.73,-12.89 38.75,-13.56 0.43,-5.2 4.16,-15.44 5.65,-20.51 15.33,-52.22 17.2,-99.27 14.68,-152.39 -0.26,-5.61 -1.44,-7.12 -1.44,-13.09l-38.73 19.38c-12.87,7.01 -23.8,14.58 -35.66,22.47 -6.35,4.22 -11.01,7.67 -16.95,12.11l-31.74 26.38c-25.76,21.54 -10.39,14.61 -10.56,57.66l-1.48 45.08c-0.32,13.02 -3.59,28.81 -5.93,40.57l-8.6 37.9 -1.45 0 1.21 1.7 0.24 -1.7zm-168.55 0c-0.48,-5.78 -11.6,-41.99 -14.66,-78.33 -2.23,-26.64 -2.4,-65.44 3.03,-88.76 -5.45,-3.65 -9.2,-8.92 -15.37,-13.69 -14.7,-11.35 -24.28,-22.88 -48.26,-38.92 -6.25,-4.18 -11.33,-7.59 -17.67,-11.39 -5.91,-3.53 -11.31,-7.53 -17.99,-11.08 -7.06,-3.75 -11.71,-6.61 -18.89,-10.17 -3.72,-1.85 -6.38,-3.34 -9.71,-4.82 -3.65,-1.62 -6.66,-2.53 -10.15,-4.38 -5.47,65.75 -3.2,101.18 12.77,164.5 1.84,7.32 5.55,14.68 6.12,21.49 6.8,0.56 29.98,10.18 37.59,13.26 21.45,8.7 46.61,24.12 64.75,38.42l28.43 23.87 0 1.46 1.69 -1.21 -1.69 -0.24zm50.01 246.4c36.09,5.46 124.55,-3.62 160.69,-12.45 31.61,-7.71 60.1,-16.66 84.01,-32.23 3.36,-2.19 4.88,-3.83 8.15,-6.38 33.14,-25.79 17.1,-55.95 0.82,-64.57 2.57,11.07 6.64,17.79 -2.95,33.38 -14.83,24.08 -59.84,39.7 -83.63,45.68 -28.7,7.23 -81.08,15.55 -112.45,15.42 -20.62,-0.09 -39.17,-0.49 -59.59,-1.49l-51.5 -5.17c-37.02,-5.94 -110.16,-22.31 -128.24,-57.74 -2.48,-4.86 -3.49,-8.46 -3.48,-15.54 0,-8.92 1.5,-9.36 3.04,-15.98 -13.38,8.96 -24.89,29.35 -16.18,46.59 3.22,6.36 7.88,11.71 13.62,17 2.06,1.91 3.5,3.01 5.64,4.62 9.13,6.87 21.68,13.91 32.39,18.38 10.14,4.22 19.11,7.7 29.72,10.96 10.39,3.18 21.48,5.67 32.43,8.25 29.33,6.91 57.61,8.43 87.52,11.29zm-302.91 -788.63l674.34 0c52.37,0 99.99,21.42 134.49,55.92 34.5,34.5 55.92,82.11 55.92,134.49l0 674.34c0,52.38 -21.42,99.99 -55.92,134.49 -34.5,34.5 -82.11,55.92 -134.49,55.92l-674.34 0c-52.39,0 -99.99,-21.42 -134.49,-55.92 -34.5,-34.5 -55.92,-82.12 -55.92,-134.49l0 -674.34c0,-52.39 21.42,-99.99 55.92,-134.49 34.5,-34.5 82.11,-55.92 134.49,-55.92zm674.34 40.59l-674.34 0c-41.18,0 -78.64,16.86 -105.8,44.02 -27.16,27.16 -44.02,64.62 -44.02,105.8l0 674.34c0,41.18 16.86,78.64 44.02,105.8 27.16,27.16 64.62,44.02 105.8,44.02l674.34 0c41.18,0 78.64,-16.86 105.8,-44.02 27.16,-27.16 44.02,-64.62 44.02,-105.8l0 -674.34c0,-41.18 -16.86,-78.64 -44.02,-105.8 -27.16,-27.16 -64.62,-44.02 -105.8,-44.02z"/>
 </g>
</svg>
