<?xml version="1.0" encoding="UTF-8"?>
<!DOCTYPE svg PUBLIC "-//W3C//DTD SVG 1.1//EN" "http://www.w3.org/Graphics/SVG/1.1/DTD/svg11.dtd">
<!-- Creator: CorelDRAW -->
<svg xmlns="http://www.w3.org/2000/svg" xml:space="preserve" width="26.4161mm" height="26.4161mm" version="1.1" style="shape-rendering:geometricPrecision; text-rendering:geometricPrecision; image-rendering:optimizeQuality; fill-rule:evenodd; clip-rule:evenodd"
viewBox="0 0 707.21 707.21"
 xmlns:xlink="http://www.w3.org/1999/xlink"
 xmlns:xodm="http://www.corel.com/coreldraw/odm/2003">
 <defs>
  <style type="text/css">
   <![CDATA[
    .fil0 {fill:url(#id1);fill-rule:nonzero}
   ]]>
  </style>
    <clipPath id="id0">
     <path d="M-0 0l707.21 0 0 707.21 -707.21 0 0 -707.21z"/>
    </clipPath>
  <linearGradient id="id1" gradientUnits="userSpaceOnUse" x1="-1322.24" y1="729.08" x2="-1322.23" y2="-112.71">
   <stop offset="0" style="stop-opacity:1; stop-color:#367BB2"/>
   <stop offset="1" style="stop-opacity:1; stop-color:white"/>
  </linearGradient>
 </defs>
 <g id="Camada_x0020_1">
  <metadata id="CorelCorpID_0Corel-Layer"/>
  <g id="_105553238089856">
   <g style="clip-path:url(#id0)">
    <image x="-0" y="0" width="707.21" height="707.21" xlink:href="odontologia_Images/odontologia_ImgID1.png"/>
   </g>
  </g>
  <path class="fil0" d="M165.28 58.93l376.64 0c29.26,0 55.85,11.96 75.12,31.23 19.27,19.27 31.23,45.86 31.23,75.12l0 376.64c0,29.25 -11.96,55.85 -31.23,75.12 -19.27,19.27 -45.86,31.23 -75.12,31.23l-376.64 0c-29.26,0 -55.85,-11.96 -75.12,-31.23 -19.27,-19.27 -31.23,-45.86 -31.23,-75.12l0 -376.64c0,-29.26 11.96,-55.85 31.23,-75.12 19.27,-19.27 45.87,-31.23 75.12,-31.23zm136.13 124.67c23.09,8.11 136.38,39.84 74.88,37.07 -15.06,-0.68 -54.11,-10.82 -84.08,-19.14 -73.74,-20.48 -65.85,44.3 -54.11,96.57 9.99,29.14 -0.68,-49.42 8.57,-72.88 9.24,-23.46 52.56,-5.24 95.08,6.19 79.41,21.35 113.65,-7.8 47.42,-35.2 3.2,-1.03 6.6,-2.2 10.47,-3.42 94.13,-29.72 115.62,29.72 92.01,114.7 -13.97,50.28 -36.13,84.22 -40.32,133.1 -4.19,48.88 -8.79,98.57 -33.93,91.38 -25.15,-7.18 -29.18,-107.9 -43.22,-123.1 -14.04,-15.21 -42.59,-26.69 -60.75,-11.32 -18.16,15.36 -25.92,128.45 -45.48,124.26 -19.55,-4.19 -20.51,-89.43 -33.07,-136.91 -23.12,-87.34 -73.66,-250.5 66.54,-201.29zm240.51 -102l-376.64 0c-23,0 -43.92,9.42 -59.09,24.59 -15.17,15.17 -24.59,36.09 -24.59,59.09l0 376.64c0,23 9.42,43.92 24.59,59.09 15.17,15.17 36.09,24.59 59.09,24.59l376.64 0c23,0 43.92,-9.42 59.09,-24.59 15.17,-15.17 24.59,-36.09 24.59,-59.09l0 -376.64c0,-23 -9.42,-43.92 -24.59,-59.09 -15.17,-15.17 -36.09,-24.59 -59.09,-24.59z"/>
 </g>
</svg>
